<?xml version="1.0" standalone="no"?>
<!DOCTYPE svg PUBLIC "-//W3C//DTD SVG 20010904//EN"
 "http://www.w3.org/TR/2001/REC-SVG-20010904/DTD/svg10.dtd">
<svg version="1.0" xmlns="http://www.w3.org/2000/svg"
 width="12.000000pt" height="12.000000pt" viewBox="0 0 57.000000 60.000000"
 preserveAspectRatio="xMidYMid meet">

<g transform="translate(0.000000,60.000000) scale(0.100000,-0.100000)"
fill="#7E5AFF" stroke="none">
<path d="M210 568 c-19 -5 -53 -21 -75 -36 -203 -139 -140 -452 100 -502 149
-31 294 66 325 217 43 203 -147 377 -350 321z m168 -87 c72 -37 112 -102 112
-183 0 -67 -30 -121 -88 -163 -38 -26 -52 -30 -112 -30 -60 0 -74 4 -112 30
-109 77 -119 224 -21 317 15 15 39 31 53 37 42 17 127 13 168 -8z"/>
<path d="M290 370 l0 -70 -45 0 c-38 0 -45 -3 -45 -20 0 -18 7 -20 65 -20 l65
0 0 90 c0 83 -1 90 -20 90 -18 0 -20 -7 -20 -70z"/>
</g>
</svg>
