<?xml version="1.0" standalone="no"?>
<!DOCTYPE svg PUBLIC "-//W3C//DTD SVG 20010904//EN"
 "http://www.w3.org/TR/2001/REC-SVG-20010904/DTD/svg10.dtd">
<svg version="1.0" xmlns="http://www.w3.org/2000/svg"
 width="12.000000pt" height="12.000000pt" viewBox="0 0 37.000000 59.000000"
 preserveAspectRatio="xMidYMid meet">

<g transform="translate(0.000000,59.000000) scale(0.100000,-0.100000)"
fill="#7E5AFF" stroke="none">
<path d="M89 542 c-49 -32 -78 -79 -86 -142 -4 -31 4 -60 46 -152 103 -223
103 -223 136 -223 29 0 33 6 104 150 86 176 95 219 61 290 -30 63 -84 98 -158
103 -50 3 -63 0 -103 -26z m164 -90 c56 -59 23 -148 -60 -159 -37 -5 -45 -2
-73 25 -39 40 -41 88 -4 131 21 26 33 31 68 31 33 0 48 -6 69 -28z"/>
</g>
</svg>
