<?xml version="1.0" standalone="no"?>
<!DOCTYPE svg PUBLIC "-//W3C//DTD SVG 20010904//EN"
 "http://www.w3.org/TR/2001/REC-SVG-20010904/DTD/svg10.dtd">
<svg version="1.0" xmlns="http://www.w3.org/2000/svg"
 width="12.000000pt" height="12.000000pt" viewBox="0 0 57.000000 49.000000"
 preserveAspectRatio="xMidYMid meet">

<g transform="translate(0.000000,49.000000) scale(0.100000,-0.100000)"
fill="#7E5AFF" stroke="none">
<path d="M123 472 c-6 -4 -35 -61 -62 -126 -50 -116 -51 -119 -51 -221 0 -85
3 -104 16 -109 24 -9 517 -7 532 3 11 6 13 34 10 117 -3 104 -5 114 -51 219
-27 60 -53 113 -60 117 -16 10 -318 10 -334 0z m337 -148 c19 -48 37 -91 38
-95 2 -5 -23 -9 -55 -9 -58 0 -60 -1 -76 -35 -16 -34 -18 -35 -77 -35 -59 0
-61 1 -77 35 -16 34 -18 35 -76 35 -52 0 -58 2 -53 18 4 9 21 52 39 94 l32 78
135 0 135 0 35 -86z"/>
</g>
</svg>
